<svg width="124" height="38" viewBox="0 0 124 38" fill="none" xmlns="http://www.w3.org/2000/svg">
<rect x="0.5" y="0.5" width="123" height="37" rx="9.5" fill="white"/>
<rect x="0.5" y="0.5" width="123" height="37" rx="9.5" stroke="#ADAA9A"/>
<path d="M22.012 18.664C22.816 18.736 23.446 19 23.902 19.456C24.358 19.9 24.586 20.47 24.586 21.166C24.586 21.358 24.568 21.556 24.532 21.76C24.424 22.36 24.172 22.912 23.776 23.416C23.38 23.92 22.894 24.322 22.318 24.622C21.742 24.922 21.13 25.072 20.482 25.072C20.122 25.072 19.732 25.054 19.312 25.018C19.168 25.006 18.994 24.994 18.79 24.982C18.586 24.97 18.358 24.964 18.106 24.964L16.972 24.982C16.78 24.994 16.516 25 16.18 25C16.144 25 16.126 24.964 16.126 24.892C16.138 24.82 16.156 24.784 16.18 24.784C16.588 24.784 16.894 24.754 17.098 24.694C17.314 24.622 17.476 24.502 17.584 24.334C17.692 24.154 17.776 23.884 17.836 23.524L19.312 15.19C19.348 14.974 19.366 14.794 19.366 14.65C19.366 14.374 19.282 14.194 19.114 14.11C18.946 14.014 18.622 13.966 18.142 13.966C18.094 13.966 18.07 13.93 18.07 13.858C18.082 13.786 18.106 13.75 18.142 13.75L18.97 13.768C19.426 13.792 19.78 13.804 20.032 13.804C20.248 13.804 20.44 13.798 20.608 13.786C20.788 13.774 20.944 13.762 21.076 13.75C21.424 13.714 21.724 13.696 21.976 13.696C22.852 13.696 23.506 13.87 23.938 14.218C24.37 14.554 24.586 15.01 24.586 15.586C24.586 15.754 24.568 15.94 24.532 16.144C24.4 16.732 24.118 17.242 23.686 17.674C23.254 18.094 22.696 18.424 22.012 18.664ZM19.744 18.664L20.464 18.682C21.316 18.682 21.994 18.448 22.498 17.98C23.014 17.512 23.338 16.9 23.47 16.144C23.506 15.94 23.524 15.742 23.524 15.55C23.524 15.058 23.368 14.668 23.056 14.38C22.756 14.092 22.276 13.948 21.616 13.948C21.328 13.948 21.106 13.978 20.95 14.038C20.806 14.098 20.68 14.224 20.572 14.416C20.476 14.596 20.398 14.884 20.338 15.28L19.744 18.664ZM23.326 22.048C23.362 21.796 23.38 21.562 23.38 21.346C23.38 20.626 23.17 20.068 22.75 19.672C22.33 19.276 21.718 19.072 20.914 19.06C20.554 19.048 20.134 19.06 19.654 19.096L18.88 23.578C18.844 23.734 18.826 23.884 18.826 24.028C18.826 24.304 18.928 24.496 19.132 24.604C19.336 24.712 19.708 24.766 20.248 24.766C21.124 24.766 21.82 24.52 22.336 24.028C22.852 23.536 23.182 22.876 23.326 22.048ZM28.5187 25.252C27.8107 25.252 27.2527 25 26.8447 24.496C26.4487 23.992 26.2507 23.332 26.2507 22.516C26.2507 22.144 26.2807 21.814 26.3407 21.526C26.4727 20.83 26.7247 20.2 27.0967 19.636C27.4687 19.072 27.9187 18.628 28.4467 18.304C28.9747 17.98 29.5327 17.818 30.1207 17.818C30.8647 17.818 31.4407 18.07 31.8487 18.574C32.2567 19.066 32.4607 19.708 32.4607 20.5C32.4607 20.836 32.4247 21.178 32.3527 21.526C32.2087 22.258 31.9387 22.912 31.5427 23.488C31.1467 24.052 30.6787 24.49 30.1387 24.802C29.6107 25.102 29.0707 25.252 28.5187 25.252ZM29.1487 24.802C29.6527 24.802 30.1087 24.58 30.5167 24.136C30.9247 23.692 31.2007 23.086 31.3447 22.318C31.4047 21.934 31.4347 21.586 31.4347 21.274C31.4347 20.446 31.2727 19.738 30.9487 19.15C30.6367 18.55 30.1867 18.25 29.5987 18.25C29.0827 18.25 28.6207 18.478 28.2127 18.934C27.8047 19.378 27.5227 19.984 27.3667 20.752C27.2947 21.112 27.2587 21.478 27.2587 21.85C27.2587 22.654 27.4267 23.35 27.7627 23.938C28.0987 24.514 28.5607 24.802 29.1487 24.802ZM36.0506 25.252C35.3426 25.252 34.7846 25 34.3766 24.496C33.9806 23.992 33.7826 23.332 33.7826 22.516C33.7826 22.144 33.8126 21.814 33.8726 21.526C34.0046 20.83 34.2566 20.2 34.6286 19.636C35.0006 19.072 35.4506 18.628 35.9786 18.304C36.5066 17.98 37.0646 17.818 37.6526 17.818C38.3966 17.818 38.9726 18.07 39.3806 18.574C39.7886 19.066 39.9926 19.708 39.9926 20.5C39.9926 20.836 39.9566 21.178 39.8846 21.526C39.7406 22.258 39.4706 22.912 39.0746 23.488C38.6786 24.052 38.2106 24.49 37.6706 24.802C37.1426 25.102 36.6026 25.252 36.0506 25.252ZM36.6806 24.802C37.1846 24.802 37.6406 24.58 38.0486 24.136C38.4566 23.692 38.7326 23.086 38.8766 22.318C38.9366 21.934 38.9666 21.586 38.9666 21.274C38.9666 20.446 38.8046 19.738 38.4806 19.15C38.1686 18.55 37.7186 18.25 37.1306 18.25C36.6146 18.25 36.1526 18.478 35.7446 18.934C35.3366 19.378 35.0546 19.984 34.8986 20.752C34.8266 21.112 34.7906 21.478 34.7906 21.85C34.7906 22.654 34.9586 23.35 35.2946 23.938C35.6306 24.514 36.0926 24.802 36.6806 24.802ZM48.0825 23.65C48.0945 23.638 48.1125 23.632 48.1365 23.632C48.1845 23.632 48.2205 23.656 48.2445 23.704C48.2685 23.74 48.2685 23.77 48.2445 23.794C47.4405 24.706 46.8045 25.162 46.3365 25.162C46.0605 25.162 45.8205 25.078 45.6165 24.91C45.4245 24.742 45.1905 24.424 44.9145 23.956L43.8705 22.138C43.7625 21.958 43.6665 21.832 43.5825 21.76C43.4985 21.688 43.3905 21.652 43.2585 21.652L43.0965 21.67L42.5205 24.874C42.4965 24.958 42.4305 25.024 42.3225 25.072C42.2265 25.12 42.0945 25.144 41.9265 25.144C41.6505 25.144 41.5125 25.108 41.5125 25.036L41.5845 24.622C41.6565 24.334 41.7225 24.016 41.7825 23.668L43.6185 13.858C43.6425 13.666 43.6545 13.54 43.6545 13.48C43.6545 13.168 43.5225 13.012 43.2585 13.012C43.0665 13.012 42.7785 13.102 42.3945 13.282H42.3585C42.3105 13.282 42.2805 13.258 42.2685 13.21C42.2565 13.15 42.2685 13.108 42.3045 13.084L44.6265 11.95H44.6625C44.7105 11.95 44.7525 11.968 44.7885 12.004C44.8365 12.04 44.8545 12.07 44.8425 12.094L43.4925 19.456C43.9485 18.952 44.4465 18.556 44.9865 18.268C45.5385 17.968 46.0965 17.818 46.6605 17.818C47.0085 17.818 47.2605 17.908 47.4165 18.088C47.5725 18.256 47.6505 18.454 47.6505 18.682C47.6505 18.79 47.6445 18.862 47.6325 18.898C47.5485 19.33 47.2305 19.756 46.6785 20.176C46.1385 20.584 45.4185 20.944 44.5185 21.256L45.7245 23.344C45.9645 23.752 46.1685 24.028 46.3365 24.172C46.5165 24.316 46.7025 24.388 46.8945 24.388C47.2065 24.388 47.6025 24.142 48.0825 23.65ZM45.8685 18.358C45.2565 18.358 44.6985 18.622 44.1945 19.15C43.7025 19.678 43.3605 20.386 43.1685 21.274L43.1505 21.418C44.2305 21.166 45.0105 20.878 45.4905 20.554C45.9825 20.23 46.2765 19.786 46.3725 19.222C46.3965 19.102 46.4085 19.018 46.4085 18.97C46.4085 18.778 46.3605 18.628 46.2645 18.52C46.1685 18.412 46.0365 18.358 45.8685 18.358ZM65.6211 13.75C65.6451 13.75 65.6571 13.786 65.6571 13.858C65.6571 13.93 65.6451 13.966 65.6211 13.966C65.1891 13.966 64.8411 14.104 64.5771 14.38C64.3251 14.644 64.1511 15.076 64.0551 15.676L62.3631 25.18C62.3631 25.204 62.3451 25.222 62.3091 25.234C62.2851 25.258 62.2551 25.27 62.2191 25.27C62.1471 25.27 62.1051 25.246 62.0931 25.198L56.8911 15.226L56.7831 15.028L55.3971 23.092C55.3491 23.332 55.3251 23.566 55.3251 23.794C55.3251 24.142 55.4031 24.394 55.5591 24.55C55.7151 24.706 55.9671 24.784 56.3151 24.784C56.3391 24.784 56.3511 24.82 56.3511 24.892C56.3511 24.964 56.3391 25 56.3151 25C56.0631 25 55.8711 24.994 55.7391 24.982L54.8931 24.964L54.1191 24.982C53.9631 24.994 53.7471 25 53.4711 25C53.4351 25 53.4171 24.964 53.4171 24.892C53.4171 24.82 53.4351 24.784 53.4711 24.784C53.9031 24.784 54.2451 24.652 54.4971 24.388C54.7491 24.124 54.9231 23.692 55.0191 23.092L56.5311 14.614C56.1951 14.182 55.8171 13.966 55.3971 13.966C55.3611 13.966 55.3431 13.93 55.3431 13.858C55.3431 13.786 55.3611 13.75 55.3971 13.75L56.0271 13.768C56.1711 13.78 56.3571 13.786 56.5851 13.786C56.7771 13.786 56.9391 13.78 57.0711 13.768C57.2151 13.756 57.3171 13.75 57.3771 13.75C57.4491 13.75 57.5031 13.774 57.5391 13.822C57.5751 13.87 57.6171 13.96 57.6651 14.092C57.6771 14.128 57.7011 14.206 57.7371 14.326C57.7851 14.446 57.8391 14.566 57.8991 14.686L62.3451 23.272L63.6771 15.676C63.7251 15.436 63.7491 15.202 63.7491 14.974C63.7491 14.626 63.6711 14.374 63.5151 14.218C63.3591 14.05 63.1131 13.966 62.7771 13.966C62.7411 13.966 62.7231 13.93 62.7231 13.858C62.7231 13.786 62.7411 13.75 62.7771 13.75L63.3171 13.768C63.6531 13.792 63.9411 13.804 64.1811 13.804C64.3731 13.804 64.6371 13.792 64.9731 13.768L65.6211 13.75ZM68.1117 25.252C67.4037 25.252 66.8457 25 66.4377 24.496C66.0417 23.992 65.8437 23.332 65.8437 22.516C65.8437 22.144 65.8737 21.814 65.9337 21.526C66.0657 20.83 66.3177 20.2 66.6897 19.636C67.0617 19.072 67.5117 18.628 68.0397 18.304C68.5677 17.98 69.1257 17.818 69.7137 17.818C70.4577 17.818 71.0337 18.07 71.4417 18.574C71.8497 19.066 72.0537 19.708 72.0537 20.5C72.0537 20.836 72.0177 21.178 71.9457 21.526C71.8017 22.258 71.5317 22.912 71.1357 23.488C70.7397 24.052 70.2717 24.49 69.7317 24.802C69.2037 25.102 68.6637 25.252 68.1117 25.252ZM68.7417 24.802C69.2457 24.802 69.7017 24.58 70.1097 24.136C70.5177 23.692 70.7937 23.086 70.9377 22.318C70.9977 21.934 71.0277 21.586 71.0277 21.274C71.0277 20.446 70.8657 19.738 70.5417 19.15C70.2297 18.55 69.7797 18.25 69.1917 18.25C68.6757 18.25 68.2137 18.478 67.8057 18.934C67.3977 19.378 67.1157 19.984 66.9597 20.752C66.8877 21.112 66.8517 21.478 66.8517 21.85C66.8517 22.654 67.0197 23.35 67.3557 23.938C67.6917 24.514 68.1537 24.802 68.7417 24.802ZM82.4166 17.872C82.9446 17.872 83.2086 18.424 83.2086 19.528C83.2086 19.912 83.1846 20.266 83.1366 20.59C83.0166 21.478 82.7646 22.282 82.3806 23.002C81.9966 23.71 81.5586 24.262 81.0666 24.658C80.5866 25.042 80.1306 25.234 79.6986 25.234C79.3746 25.234 79.0866 25.126 78.8346 24.91C78.5826 24.682 78.3786 24.37 78.2226 23.974C77.8626 24.382 77.4906 24.694 77.1066 24.91C76.7226 25.126 76.3506 25.234 75.9906 25.234C75.4746 25.234 75.0786 25.042 74.8026 24.658C74.5266 24.274 74.3886 23.788 74.3886 23.2C74.3886 22.756 74.4846 22.276 74.6766 21.76C74.8686 21.244 75.1326 20.632 75.4686 19.924C75.5166 19.816 75.5586 19.72 75.5946 19.636C75.6426 19.552 75.6786 19.48 75.7026 19.42C75.7506 19.324 75.7746 19.234 75.7746 19.15C75.7746 19.03 75.6906 18.97 75.5226 18.97H74.6046C74.2806 18.97 74.0406 18.994 73.8846 19.042C73.7406 19.078 73.6206 19.162 73.5246 19.294C73.4406 19.414 73.3506 19.618 73.2546 19.906C73.2426 19.942 73.2066 19.96 73.1466 19.96C73.1106 19.96 73.0806 19.948 73.0566 19.924C73.0446 19.9 73.0446 19.87 73.0566 19.834C73.2486 19.282 73.4046 18.886 73.5246 18.646C73.6566 18.406 73.8126 18.244 73.9926 18.16C74.1846 18.076 74.4666 18.034 74.8386 18.034H76.4406C76.5726 18.034 76.6386 18.058 76.6386 18.106C76.6386 18.13 76.6206 18.178 76.5846 18.25C76.2846 18.922 76.0206 19.612 75.7926 20.32C75.5766 21.028 75.4326 21.646 75.3606 22.174C75.3366 22.438 75.3246 22.624 75.3246 22.732C75.3246 23.248 75.4266 23.656 75.6306 23.956C75.8466 24.256 76.1406 24.406 76.5126 24.406C76.7646 24.406 77.0226 24.334 77.2866 24.19C77.5626 24.034 77.8266 23.818 78.0786 23.542C77.9586 23.11 77.8986 22.606 77.8986 22.03C77.8986 21.598 77.9346 21.166 78.0066 20.734C78.1266 19.93 78.3126 19.264 78.5646 18.736C78.8286 18.208 79.1106 17.944 79.4106 17.944C79.6266 17.944 79.7886 18.052 79.8966 18.268C80.0046 18.484 80.0586 18.772 80.0586 19.132C80.0586 19.276 80.0346 19.528 79.9866 19.888C79.7706 21.232 79.3446 22.378 78.7086 23.326C79.0566 24.046 79.5546 24.406 80.2026 24.406C80.5026 24.406 80.8086 24.286 81.1206 24.046C81.4446 23.794 81.7326 23.446 81.9846 23.002C82.2486 22.558 82.4286 22.054 82.5246 21.49C82.5726 21.202 82.5966 20.92 82.5966 20.644C82.5966 20.26 82.5486 19.96 82.4526 19.744C82.3566 19.528 82.2186 19.306 82.0386 19.078C81.9306 18.97 81.8466 18.874 81.7866 18.79C81.7386 18.706 81.7146 18.604 81.7146 18.484C81.7146 18.28 81.7866 18.13 81.9306 18.034C82.0746 17.926 82.2366 17.872 82.4166 17.872ZM78.3666 20.302C78.3186 20.602 78.2946 20.926 78.2946 21.274C78.2946 21.898 78.3786 22.45 78.5466 22.93C79.0146 22.186 79.3206 21.346 79.4646 20.41C79.4886 20.17 79.5006 20.014 79.5006 19.942C79.5006 19.666 79.4586 19.45 79.3746 19.294C79.3026 19.138 79.1886 19.06 79.0326 19.06C78.8646 19.06 78.7206 19.18 78.6006 19.42C78.4926 19.66 78.4146 19.954 78.3666 20.302Z" fill="#242424"/>
<path d="M102.942 14L101.882 15.0708L105.107 18.2558H90V19.7442H105.107L101.883 22.9299L102.942 24L108 19L102.942 14Z" fill="#053634"/>
</svg>
