<svg width="176" height="38" viewBox="0 0 176 38" fill="none" xmlns="http://www.w3.org/2000/svg">
<rect x="1" y="0.5" width="174" height="37" rx="9.5" fill="white"/>
<rect x="1" y="0.5" width="174" height="37" rx="9.5" stroke="#ADAA9A"/>
<path d="M19.794 25.216C19.386 25.216 18.996 25.168 18.624 25.072C18.252 24.988 17.862 24.832 17.454 24.604C17.358 24.544 17.322 24.43 17.346 24.262L17.598 21.886C17.598 21.826 17.628 21.796 17.688 21.796C17.76 21.796 17.796 21.826 17.796 21.886C17.82 22.75 18.03 23.476 18.426 24.064C18.834 24.64 19.44 24.928 20.244 24.928C20.832 24.928 21.348 24.76 21.792 24.424C22.248 24.076 22.536 23.542 22.656 22.822C22.692 22.618 22.71 22.438 22.71 22.282C22.71 21.694 22.536 21.208 22.188 20.824C21.852 20.428 21.36 20.008 20.712 19.564C20.268 19.24 19.914 18.97 19.65 18.754C19.398 18.526 19.182 18.256 19.002 17.944C18.822 17.632 18.732 17.272 18.732 16.864C18.732 16.696 18.75 16.522 18.786 16.342C18.906 15.742 19.146 15.232 19.506 14.812C19.878 14.392 20.322 14.08 20.838 13.876C21.354 13.66 21.888 13.552 22.44 13.552C23.076 13.552 23.724 13.696 24.384 13.984C24.54 14.068 24.612 14.17 24.6 14.29L24.366 16.288C24.366 16.336 24.33 16.36 24.258 16.36C24.198 16.36 24.162 16.336 24.15 16.288C24.102 15.58 23.928 14.992 23.628 14.524C23.328 14.056 22.836 13.822 22.152 13.822C21.636 13.822 21.204 13.954 20.856 14.218C20.52 14.47 20.268 14.788 20.1 15.172C19.944 15.556 19.866 15.934 19.866 16.306C19.866 16.678 19.956 17.014 20.136 17.314C20.316 17.602 20.532 17.848 20.784 18.052C21.036 18.256 21.384 18.514 21.828 18.826C22.512 19.282 23.034 19.714 23.394 20.122C23.754 20.53 23.934 21.04 23.934 21.652C23.934 21.868 23.922 22.036 23.898 22.156C23.742 23.032 23.304 23.764 22.584 24.352C21.864 24.928 20.934 25.216 19.794 25.216ZM31.0965 18.628C31.0965 19 30.8985 19.36 30.5025 19.708C30.1185 20.044 29.5965 20.338 28.9365 20.59C28.2885 20.842 27.5865 21.028 26.8305 21.148C26.7705 21.532 26.7405 21.862 26.7405 22.138C26.7405 22.882 26.9085 23.482 27.2445 23.938C27.5805 24.382 28.0545 24.604 28.6665 24.604C29.3385 24.604 29.9385 24.406 30.4665 24.01H30.5025C30.5385 24.01 30.5685 24.028 30.5925 24.064C30.6285 24.1 30.6285 24.136 30.5925 24.172C29.7525 24.868 28.8765 25.216 27.9645 25.216C27.2085 25.216 26.6325 24.976 26.2365 24.496C25.8525 24.004 25.6605 23.374 25.6605 22.606C25.6605 22.342 25.6905 22.03 25.7505 21.67C25.8585 21.058 26.1105 20.458 26.5065 19.87C26.9025 19.27 27.3945 18.778 27.9825 18.394C28.5825 18.01 29.2065 17.818 29.8545 17.818C30.2505 17.818 30.5565 17.89 30.7725 18.034C30.9885 18.178 31.0965 18.376 31.0965 18.628ZM29.0625 18.304C28.5105 18.304 28.0425 18.55 27.6585 19.042C27.2865 19.522 27.0285 20.14 26.8845 20.896C27.7245 20.752 28.4025 20.536 28.9185 20.248C29.4465 19.96 29.7645 19.6 29.8725 19.168C29.8965 19.048 29.9085 18.964 29.9085 18.916C29.9085 18.712 29.8245 18.562 29.6565 18.466C29.4885 18.358 29.2905 18.304 29.0625 18.304ZM39.6424 23.614C39.6664 23.59 39.6844 23.578 39.6964 23.578C39.7324 23.578 39.7624 23.602 39.7864 23.65C39.8224 23.686 39.8224 23.722 39.7864 23.758C39.3784 24.238 39.0124 24.592 38.6884 24.82C38.3764 25.048 38.0704 25.162 37.7704 25.162C37.5544 25.162 37.3924 25.102 37.2844 24.982C37.1884 24.85 37.1404 24.64 37.1404 24.352C37.1404 24.112 37.1764 23.794 37.2484 23.398L37.7704 20.536C37.8424 20.152 37.8784 19.828 37.8784 19.564C37.8784 18.868 37.6204 18.52 37.1044 18.52C36.7084 18.52 36.2944 18.772 35.8624 19.276C35.4424 19.78 35.0464 20.518 34.6744 21.49C34.3024 22.45 34.0024 23.578 33.7744 24.874C33.7504 24.958 33.6844 25.024 33.5764 25.072C33.4804 25.12 33.3484 25.144 33.1804 25.144C33.0124 25.144 32.8984 25.132 32.8384 25.108C32.7904 25.096 32.7664 25.072 32.7664 25.036L32.8384 24.622C32.9104 24.334 32.9764 24.016 33.0364 23.668L33.7744 19.654C33.8104 19.474 33.8284 19.312 33.8284 19.168C33.8284 18.784 33.7084 18.592 33.4684 18.592C33.3244 18.592 33.1384 18.664 32.9104 18.808C32.6944 18.952 32.4664 19.156 32.2264 19.42C32.2144 19.432 32.1964 19.438 32.1724 19.438C32.1364 19.438 32.1004 19.42 32.0644 19.384C32.0404 19.336 32.0464 19.3 32.0824 19.276C32.4904 18.808 32.8624 18.46 33.1984 18.232C33.5464 18.004 33.8764 17.89 34.1884 17.89C34.3924 17.89 34.5424 17.956 34.6384 18.088C34.7344 18.208 34.7824 18.406 34.7824 18.682C34.7824 18.994 34.7524 19.306 34.6924 19.618L34.3144 21.796C34.7464 20.548 35.2564 19.576 35.8444 18.88C36.4324 18.172 37.0504 17.818 37.6984 17.818C38.0944 17.818 38.3884 17.926 38.5804 18.142C38.7724 18.358 38.8684 18.7 38.8684 19.168C38.8684 19.456 38.8324 19.798 38.7604 20.194L38.1664 23.398C38.1304 23.578 38.1124 23.74 38.1124 23.884C38.1124 24.256 38.2324 24.442 38.4724 24.442C38.7244 24.442 39.1144 24.166 39.6424 23.614ZM46.5156 23.398C46.4796 23.578 46.4616 23.734 46.4616 23.866C46.4616 24.25 46.5816 24.442 46.8216 24.442C47.0616 24.442 47.4576 24.166 48.0096 23.614C48.0336 23.59 48.0516 23.578 48.0636 23.578C48.0996 23.578 48.1296 23.602 48.1536 23.65C48.1896 23.686 48.1896 23.722 48.1536 23.758C47.7216 24.238 47.3496 24.592 47.0376 24.82C46.7256 25.048 46.4196 25.162 46.1196 25.162C45.6996 25.162 45.4896 24.898 45.4896 24.37C45.4896 24.178 45.5316 23.854 45.6156 23.398L45.9576 21.616C45.4056 22.744 44.8176 23.632 44.1936 24.28C43.5816 24.916 42.9576 25.234 42.3216 25.234C41.8896 25.234 41.5356 25.096 41.2596 24.82C40.9836 24.532 40.8456 24.082 40.8456 23.47C40.8456 23.338 40.8696 23.092 40.9176 22.732C41.0736 21.868 41.3976 21.058 41.8896 20.302C42.3936 19.546 42.9876 18.946 43.6716 18.502C44.3676 18.046 45.0576 17.818 45.7416 17.818C46.0776 17.818 46.3656 17.896 46.6056 18.052L47.3976 13.858C47.4216 13.666 47.4336 13.54 47.4336 13.48C47.4336 13.168 47.3016 13.012 47.0376 13.012C46.8456 13.012 46.5516 13.102 46.1556 13.282H46.1196C46.0836 13.282 46.0536 13.252 46.0296 13.192C46.0176 13.132 46.0356 13.096 46.0836 13.084L48.4236 11.95H48.4596C48.4956 11.95 48.5316 11.968 48.5676 12.004C48.6036 12.04 48.6156 12.07 48.6036 12.094L46.5156 23.398ZM42.8976 24.352C43.4376 24.352 43.9656 24.058 44.4816 23.47C45.0096 22.882 45.4416 22.198 45.7776 21.418C46.1136 20.638 46.2816 20.032 46.2816 19.6C46.2816 19.228 46.1736 18.946 45.9576 18.754C45.7416 18.55 45.4476 18.448 45.0756 18.448C44.2956 18.472 43.6176 18.79 43.0416 19.402C42.4776 20.014 42.0996 20.884 41.9076 22.012C41.8596 22.288 41.8356 22.558 41.8356 22.822C41.8356 23.326 41.9256 23.71 42.1056 23.974C42.2976 24.226 42.5616 24.352 42.8976 24.352ZM64.1684 13.75C64.2164 13.75 64.2404 13.786 64.2404 13.858C64.2404 13.93 64.2164 13.966 64.1684 13.966C63.4004 13.966 62.6144 14.53 61.8104 15.658L59.0744 19.42L58.3544 23.542C58.3064 23.77 58.2824 23.974 58.2824 24.154C58.2824 24.406 58.3664 24.574 58.5344 24.658C58.7024 24.742 59.0144 24.784 59.4704 24.784C59.5184 24.784 59.5424 24.82 59.5424 24.892C59.5424 24.964 59.5184 25 59.4704 25C59.1464 25 58.8944 24.994 58.7144 24.982L57.6164 24.964L56.4824 24.982C56.3024 24.994 56.0504 25 55.7264 25C55.6784 25 55.6544 24.964 55.6544 24.892C55.6544 24.82 55.6784 24.784 55.7264 24.784C56.1224 24.784 56.4224 24.754 56.6264 24.694C56.8304 24.622 56.9804 24.502 57.0764 24.334C57.1724 24.166 57.2504 23.902 57.3104 23.542L57.9944 19.582L56.1584 15.244C55.9544 14.776 55.7444 14.446 55.5284 14.254C55.3244 14.062 55.0544 13.966 54.7184 13.966C54.6704 13.966 54.6464 13.93 54.6464 13.858C54.6464 13.786 54.6704 13.75 54.7184 13.75L55.3304 13.768C55.6184 13.792 55.8284 13.804 55.9604 13.804C56.2604 13.804 56.6744 13.792 57.2024 13.768L58.0304 13.75C58.0544 13.75 58.0664 13.78 58.0664 13.84C58.0664 13.924 58.0424 13.966 57.9944 13.966C57.6704 13.966 57.4364 13.996 57.2924 14.056C57.1604 14.116 57.0944 14.218 57.0944 14.362C57.0944 14.434 57.1244 14.542 57.1844 14.686L59.0024 19.042L61.4504 15.568C61.7744 15.112 61.9364 14.752 61.9364 14.488C61.9364 14.14 61.6844 13.966 61.1804 13.966C61.1324 13.966 61.1084 13.93 61.1084 13.858C61.1084 13.786 61.1324 13.75 61.1804 13.75L61.9004 13.768C62.3084 13.792 62.6624 13.804 62.9624 13.804C63.1424 13.804 63.3524 13.792 63.5924 13.768L64.1684 13.75ZM64.305 25.252C63.597 25.252 63.039 25 62.631 24.496C62.235 23.992 62.037 23.332 62.037 22.516C62.037 22.144 62.067 21.814 62.127 21.526C62.259 20.83 62.511 20.2 62.883 19.636C63.255 19.072 63.705 18.628 64.233 18.304C64.761 17.98 65.319 17.818 65.907 17.818C66.651 17.818 67.227 18.07 67.635 18.574C68.043 19.066 68.247 19.708 68.247 20.5C68.247 20.836 68.211 21.178 68.139 21.526C67.995 22.258 67.725 22.912 67.329 23.488C66.933 24.052 66.465 24.49 65.925 24.802C65.397 25.102 64.857 25.252 64.305 25.252ZM64.935 24.802C65.439 24.802 65.895 24.58 66.303 24.136C66.711 23.692 66.987 23.086 67.131 22.318C67.191 21.934 67.221 21.586 67.221 21.274C67.221 20.446 67.059 19.738 66.735 19.15C66.423 18.55 65.973 18.25 65.385 18.25C64.869 18.25 64.407 18.478 63.999 18.934C63.591 19.378 63.309 19.984 63.153 20.752C63.081 21.112 63.045 21.478 63.045 21.85C63.045 22.654 63.213 23.35 63.549 23.938C63.885 24.514 64.347 24.802 64.935 24.802ZM76.9129 23.632C76.9249 23.62 76.9429 23.614 76.9669 23.614C77.0029 23.614 77.0329 23.638 77.0569 23.686C77.0809 23.722 77.0809 23.752 77.0569 23.776C76.6369 24.256 76.2589 24.61 75.9229 24.838C75.5869 25.054 75.2629 25.162 74.9509 25.162C74.7469 25.162 74.5969 25.102 74.5009 24.982C74.4049 24.85 74.3569 24.646 74.3569 24.37C74.3569 24.058 74.3869 23.746 74.4469 23.434L74.8249 21.256C74.3929 22.504 73.8829 23.482 73.2949 24.19C72.7069 24.886 72.0889 25.234 71.4409 25.234C70.6489 25.234 70.2529 24.79 70.2529 23.902C70.2529 23.578 70.2949 23.23 70.3789 22.858L71.0269 19.654C71.0629 19.45 71.0809 19.288 71.0809 19.168C71.0809 18.796 70.9669 18.61 70.7389 18.61C70.4989 18.61 70.1029 18.886 69.5509 19.438C69.5269 19.462 69.5029 19.474 69.4789 19.474C69.4429 19.474 69.4129 19.456 69.3889 19.42C69.3649 19.372 69.3709 19.33 69.4069 19.294C69.8269 18.814 70.1929 18.46 70.5049 18.232C70.8289 18.004 71.1409 17.89 71.4409 17.89C71.8609 17.89 72.0709 18.166 72.0709 18.718C72.0709 18.898 72.0289 19.21 71.9449 19.654L71.3689 22.516C71.2849 22.972 71.2429 23.302 71.2429 23.506C71.2429 24.19 71.5009 24.532 72.0169 24.532C72.4129 24.532 72.8209 24.28 73.2409 23.776C73.6729 23.272 74.0749 22.54 74.4469 21.58C74.8309 20.62 75.1369 19.486 75.3649 18.178C75.4009 17.998 75.5929 17.908 75.9409 17.908C76.2289 17.908 76.3729 17.944 76.3729 18.016L76.3009 18.43C76.2289 18.718 76.1629 19.036 76.1029 19.384L75.3649 23.398C75.3289 23.578 75.3109 23.74 75.3109 23.884C75.3109 24.268 75.4309 24.46 75.6709 24.46C75.8029 24.46 75.9769 24.388 76.1929 24.244C76.4209 24.1 76.6609 23.896 76.9129 23.632ZM96.1409 13.75C96.1649 13.75 96.1769 13.786 96.1769 13.858C96.1769 13.93 96.1649 13.966 96.1409 13.966C95.6369 13.966 95.2649 14.05 95.0249 14.218C94.7849 14.374 94.6289 14.692 94.5569 15.172L93.3149 23.542C93.2789 23.758 93.2609 23.938 93.2609 24.082C93.2609 24.37 93.3389 24.562 93.4949 24.658C93.6629 24.742 93.9689 24.784 94.4129 24.784C94.4489 24.784 94.4669 24.82 94.4669 24.892C94.4669 24.964 94.4489 25 94.4129 25C94.1129 25 93.8729 24.994 93.6929 24.982L92.5769 24.964L91.4969 24.982C91.3169 24.994 91.0709 25 90.7589 25C90.7229 25 90.7049 24.964 90.7049 24.892C90.7049 24.82 90.7229 24.784 90.7589 24.784C91.1549 24.784 91.4489 24.754 91.6409 24.694C91.8329 24.634 91.9709 24.52 92.0549 24.352C92.1509 24.172 92.2229 23.902 92.2709 23.542L93.5669 14.974L88.3109 24.874C88.2869 24.922 88.2449 24.946 88.1849 24.946C88.1249 24.946 88.0829 24.916 88.0589 24.856L86.0249 15.244L86.0069 15.172L84.5849 23.038C84.5369 23.422 84.5129 23.662 84.5129 23.758C84.5129 24.118 84.5849 24.382 84.7289 24.55C84.8849 24.706 85.1309 24.784 85.4669 24.784C85.5029 24.784 85.5209 24.82 85.5209 24.892C85.5209 24.964 85.5029 25 85.4669 25C85.2149 25 85.0229 24.994 84.8909 24.982L84.0809 24.964L83.3249 24.982C83.1809 24.994 82.9709 25 82.6949 25C82.6589 25 82.6409 24.964 82.6409 24.892C82.6409 24.82 82.6589 24.784 82.6949 24.784C83.1149 24.784 83.4449 24.652 83.6849 24.388C83.9249 24.112 84.1049 23.662 84.2249 23.038L85.7909 14.578C85.5509 14.17 85.1669 13.966 84.6389 13.966C84.6149 13.966 84.6029 13.93 84.6029 13.858C84.6029 13.786 84.6149 13.75 84.6389 13.75L85.1429 13.768C85.2629 13.78 85.4249 13.786 85.6289 13.786C85.8449 13.786 86.0129 13.78 86.1329 13.768C86.2649 13.756 86.3609 13.75 86.4209 13.75C86.5529 13.75 86.6549 13.81 86.7269 13.93C86.8109 14.05 86.8949 14.302 86.9789 14.686L88.8149 23.272L93.6029 14.2C93.7829 13.9 93.9749 13.75 94.1789 13.75C94.2629 13.75 94.3709 13.756 94.5029 13.768C94.6469 13.78 94.7969 13.786 94.9529 13.786L95.6549 13.768C95.7629 13.756 95.9249 13.75 96.1409 13.75ZM101.836 18.628C101.836 19 101.638 19.36 101.242 19.708C100.858 20.044 100.336 20.338 99.6765 20.59C99.0285 20.842 98.3265 21.028 97.5705 21.148C97.5105 21.532 97.4805 21.862 97.4805 22.138C97.4805 22.882 97.6485 23.482 97.9845 23.938C98.3205 24.382 98.7945 24.604 99.4065 24.604C100.078 24.604 100.678 24.406 101.206 24.01H101.242C101.278 24.01 101.308 24.028 101.332 24.064C101.368 24.1 101.368 24.136 101.332 24.172C100.492 24.868 99.6165 25.216 98.7045 25.216C97.9485 25.216 97.3725 24.976 96.9765 24.496C96.5925 24.004 96.4005 23.374 96.4005 22.606C96.4005 22.342 96.4305 22.03 96.4905 21.67C96.5985 21.058 96.8505 20.458 97.2465 19.87C97.6425 19.27 98.1345 18.778 98.7225 18.394C99.3225 18.01 99.9465 17.818 100.594 17.818C100.99 17.818 101.296 17.89 101.512 18.034C101.728 18.178 101.836 18.376 101.836 18.628ZM99.8025 18.304C99.2505 18.304 98.7825 18.55 98.3985 19.042C98.0265 19.522 97.7685 20.14 97.6245 20.896C98.4645 20.752 99.1425 20.536 99.6585 20.248C100.186 19.96 100.504 19.6 100.612 19.168C100.636 19.048 100.648 18.964 100.648 18.916C100.648 18.712 100.564 18.562 100.396 18.466C100.228 18.358 100.03 18.304 99.8025 18.304ZM104.262 25.198C103.794 25.198 103.392 25.09 103.056 24.874C102.732 24.658 102.594 24.394 102.642 24.082C102.654 23.926 102.714 23.806 102.822 23.722C102.93 23.626 103.05 23.578 103.182 23.578C103.29 23.578 103.374 23.614 103.434 23.686C103.506 23.758 103.59 23.878 103.686 24.046C103.83 24.286 103.974 24.472 104.118 24.604C104.274 24.736 104.502 24.802 104.802 24.802C105.462 24.802 105.846 24.436 105.954 23.704C105.966 23.644 105.972 23.566 105.972 23.47C105.972 23.122 105.876 22.822 105.684 22.57C105.492 22.318 105.192 22.024 104.784 21.688C104.388 21.364 104.088 21.082 103.884 20.842C103.692 20.59 103.596 20.29 103.596 19.942C103.596 19.882 103.608 19.78 103.632 19.636C103.74 19.096 104.022 18.67 104.478 18.358C104.946 18.034 105.462 17.872 106.026 17.872C106.434 17.872 106.776 17.95 107.052 18.106C107.34 18.262 107.484 18.46 107.484 18.7C107.484 18.88 107.424 19.018 107.304 19.114C107.196 19.21 107.07 19.258 106.926 19.258C106.794 19.258 106.68 19.222 106.584 19.15C106.5 19.078 106.404 18.97 106.296 18.826C106.164 18.634 106.032 18.496 105.9 18.412C105.78 18.316 105.606 18.268 105.378 18.268C105.09 18.268 104.856 18.352 104.676 18.52C104.508 18.676 104.424 18.91 104.424 19.222C104.424 19.546 104.52 19.84 104.712 20.104C104.916 20.356 105.21 20.644 105.594 20.968C106.014 21.34 106.32 21.658 106.512 21.922C106.716 22.174 106.818 22.48 106.818 22.84C106.818 23.224 106.704 23.602 106.476 23.974C106.248 24.334 105.936 24.628 105.54 24.856C105.144 25.084 104.718 25.198 104.262 25.198ZM109.949 25.198C109.481 25.198 109.079 25.09 108.743 24.874C108.419 24.658 108.281 24.394 108.329 24.082C108.341 23.926 108.401 23.806 108.509 23.722C108.617 23.626 108.737 23.578 108.869 23.578C108.977 23.578 109.061 23.614 109.121 23.686C109.193 23.758 109.277 23.878 109.373 24.046C109.517 24.286 109.661 24.472 109.805 24.604C109.961 24.736 110.189 24.802 110.489 24.802C111.149 24.802 111.533 24.436 111.641 23.704C111.653 23.644 111.659 23.566 111.659 23.47C111.659 23.122 111.563 22.822 111.371 22.57C111.179 22.318 110.879 22.024 110.471 21.688C110.075 21.364 109.775 21.082 109.571 20.842C109.379 20.59 109.283 20.29 109.283 19.942C109.283 19.882 109.295 19.78 109.319 19.636C109.427 19.096 109.709 18.67 110.165 18.358C110.633 18.034 111.149 17.872 111.713 17.872C112.121 17.872 112.463 17.95 112.739 18.106C113.027 18.262 113.171 18.46 113.171 18.7C113.171 18.88 113.111 19.018 112.991 19.114C112.883 19.21 112.757 19.258 112.613 19.258C112.481 19.258 112.367 19.222 112.271 19.15C112.187 19.078 112.091 18.97 111.983 18.826C111.851 18.634 111.719 18.496 111.587 18.412C111.467 18.316 111.293 18.268 111.065 18.268C110.777 18.268 110.543 18.352 110.363 18.52C110.195 18.676 110.111 18.91 110.111 19.222C110.111 19.546 110.207 19.84 110.399 20.104C110.603 20.356 110.897 20.644 111.281 20.968C111.701 21.34 112.007 21.658 112.199 21.922C112.403 22.174 112.505 22.48 112.505 22.84C112.505 23.224 112.391 23.602 112.163 23.974C111.935 24.334 111.623 24.628 111.227 24.856C110.831 25.084 110.405 25.198 109.949 25.198ZM121.284 23.614C121.296 23.602 121.314 23.596 121.338 23.596C121.374 23.596 121.404 23.62 121.428 23.668C121.452 23.704 121.452 23.734 121.428 23.758C121.02 24.226 120.654 24.58 120.33 24.82C120.018 25.048 119.712 25.162 119.412 25.162C119.208 25.162 119.052 25.102 118.944 24.982C118.848 24.85 118.8 24.64 118.8 24.352C118.8 24.112 118.836 23.794 118.908 23.398L119.232 21.526C118.68 22.642 118.056 23.542 117.36 24.226C116.676 24.898 116.016 25.234 115.38 25.234C114.636 25.234 114.264 24.79 114.264 23.902C114.264 23.806 114.276 23.626 114.3 23.362C114.42 22.51 114.738 21.652 115.254 20.788C115.77 19.924 116.376 19.216 117.072 18.664C117.768 18.1 118.422 17.818 119.034 17.818C119.262 17.818 119.484 17.86 119.7 17.944C119.916 18.028 120.09 18.154 120.222 18.322C120.438 18.142 120.582 17.926 120.654 17.674C120.666 17.638 120.708 17.626 120.78 17.638C120.852 17.65 120.882 17.668 120.87 17.692L119.826 23.398C119.79 23.578 119.772 23.74 119.772 23.884C119.772 24.256 119.88 24.442 120.096 24.442C120.36 24.442 120.756 24.166 121.284 23.614ZM116.028 24.352C116.46 24.352 116.916 24.13 117.396 23.686C117.888 23.242 118.326 22.684 118.71 22.012C119.094 21.328 119.352 20.662 119.484 20.014C119.52 19.858 119.532 19.72 119.52 19.6C119.52 19.24 119.424 18.958 119.232 18.754C119.052 18.55 118.776 18.448 118.404 18.448C117.984 18.46 117.552 18.652 117.108 19.024C116.676 19.384 116.298 19.876 115.974 20.5C115.65 21.112 115.434 21.796 115.326 22.552C115.29 22.816 115.272 23.056 115.272 23.272C115.272 23.992 115.524 24.352 116.028 24.352ZM128.999 17.908C129.059 17.908 129.089 17.98 129.089 18.124C129.089 18.268 129.059 18.424 128.999 18.592C128.951 18.748 128.903 18.814 128.855 18.79C128.579 18.646 128.243 18.574 127.847 18.574C127.691 18.574 127.571 18.58 127.487 18.592C127.739 18.94 127.865 19.372 127.865 19.888C127.865 20.14 127.841 20.368 127.793 20.572C127.685 21.1 127.475 21.568 127.163 21.976C126.851 22.372 126.485 22.684 126.065 22.912C125.657 23.128 125.237 23.236 124.805 23.236C124.685 23.236 124.541 23.224 124.373 23.2C124.217 23.38 124.127 23.572 124.103 23.776C124.067 24.088 124.181 24.358 124.445 24.586C124.721 24.802 125.147 25.054 125.723 25.342C126.179 25.582 126.539 25.786 126.803 25.954C127.079 26.122 127.313 26.332 127.505 26.584C127.709 26.836 127.811 27.124 127.811 27.448C127.811 27.904 127.637 28.33 127.289 28.726C126.941 29.134 126.473 29.458 125.885 29.698C125.309 29.938 124.685 30.058 124.013 30.058C123.185 30.058 122.525 29.878 122.033 29.518C121.541 29.17 121.295 28.744 121.295 28.24C121.295 27.712 121.517 27.244 121.961 26.836C122.405 26.428 123.047 25.984 123.887 25.504C123.455 25.192 123.239 24.856 123.239 24.496C123.239 24.256 123.311 24.034 123.455 23.83C123.599 23.614 123.815 23.38 124.103 23.128C123.743 22.996 123.461 22.762 123.257 22.426C123.065 22.09 122.969 21.706 122.969 21.274C122.969 21.07 122.999 20.836 123.059 20.572C123.203 19.816 123.563 19.192 124.139 18.7C124.715 18.196 125.357 17.944 126.065 17.944C126.557 17.944 126.959 18.082 127.271 18.358C127.907 18.058 128.483 17.908 128.999 17.908ZM126.821 21.058C126.857 20.842 126.875 20.62 126.875 20.392C126.875 19.816 126.767 19.318 126.551 18.898C126.335 18.478 126.023 18.268 125.615 18.268C125.255 18.268 124.919 18.448 124.607 18.808C124.307 19.156 124.115 19.594 124.031 20.122C123.995 20.35 123.977 20.578 123.977 20.806C123.977 21.382 124.091 21.874 124.319 22.282C124.547 22.69 124.859 22.894 125.255 22.894C125.615 22.894 125.939 22.732 126.227 22.408C126.527 22.072 126.725 21.622 126.821 21.058ZM126.911 28.096C126.911 27.676 126.743 27.322 126.407 27.034C126.071 26.758 125.579 26.446 124.931 26.098C124.595 25.942 124.307 25.786 124.067 25.63C123.491 25.99 123.053 26.314 122.753 26.602C122.465 26.902 122.321 27.286 122.321 27.754C122.321 28.27 122.555 28.696 123.023 29.032C123.491 29.38 124.109 29.554 124.877 29.554C125.525 29.554 126.023 29.416 126.371 29.14C126.731 28.864 126.911 28.516 126.911 28.096ZM134.978 18.628C134.978 19 134.78 19.36 134.384 19.708C134 20.044 133.478 20.338 132.818 20.59C132.17 20.842 131.468 21.028 130.712 21.148C130.652 21.532 130.622 21.862 130.622 22.138C130.622 22.882 130.79 23.482 131.126 23.938C131.462 24.382 131.936 24.604 132.548 24.604C133.22 24.604 133.82 24.406 134.348 24.01H134.384C134.42 24.01 134.45 24.028 134.474 24.064C134.51 24.1 134.51 24.136 134.474 24.172C133.634 24.868 132.758 25.216 131.846 25.216C131.09 25.216 130.514 24.976 130.118 24.496C129.734 24.004 129.542 23.374 129.542 22.606C129.542 22.342 129.572 22.03 129.632 21.67C129.74 21.058 129.992 20.458 130.388 19.87C130.784 19.27 131.276 18.778 131.864 18.394C132.464 18.01 133.088 17.818 133.736 17.818C134.132 17.818 134.438 17.89 134.654 18.034C134.87 18.178 134.978 18.376 134.978 18.628ZM132.944 18.304C132.392 18.304 131.924 18.55 131.54 19.042C131.168 19.522 130.91 20.14 130.766 20.896C131.606 20.752 132.284 20.536 132.8 20.248C133.328 19.96 133.646 19.6 133.754 19.168C133.778 19.048 133.79 18.964 133.79 18.916C133.79 18.712 133.706 18.562 133.538 18.466C133.37 18.358 133.172 18.304 132.944 18.304Z" fill="#242424"/>
<path d="M154.442 14L153.382 15.0708L156.607 18.2558H141.5V19.7442H156.607L153.383 22.9299L154.442 24L159.5 19L154.442 14Z" fill="#053634"/>
</svg>
