<svg width="89" height="30" viewBox="0 0 89 30" fill="none" xmlns="http://www.w3.org/2000/svg">
<rect x="0.5" y="0.5" width="88" height="29" rx="7.5" fill="white" fill-opacity="0.6"/>
<rect x="0.5" y="0.5" width="88" height="29" rx="7.5" stroke="#ADAA9A"/>
<path d="M25.77 9.75C25.794 9.75 25.806 9.786 25.806 9.858C25.806 9.93 25.794 9.966 25.77 9.966C25.266 9.966 24.894 10.05 24.654 10.218C24.414 10.374 24.258 10.692 24.186 11.172L22.944 19.542C22.908 19.758 22.89 19.938 22.89 20.082C22.89 20.37 22.968 20.562 23.124 20.658C23.292 20.742 23.598 20.784 24.042 20.784C24.078 20.784 24.096 20.82 24.096 20.892C24.096 20.964 24.078 21 24.042 21C23.742 21 23.502 20.994 23.322 20.982L22.206 20.964L21.126 20.982C20.946 20.994 20.7 21 20.388 21C20.352 21 20.334 20.964 20.334 20.892C20.334 20.82 20.352 20.784 20.388 20.784C20.784 20.784 21.078 20.754 21.27 20.694C21.462 20.634 21.6 20.52 21.684 20.352C21.78 20.172 21.852 19.902 21.9 19.542L23.196 10.974L17.94 20.874C17.916 20.922 17.874 20.946 17.814 20.946C17.754 20.946 17.712 20.916 17.688 20.856L15.654 11.244L15.636 11.172L14.214 19.038C14.166 19.422 14.142 19.662 14.142 19.758C14.142 20.118 14.214 20.382 14.358 20.55C14.514 20.706 14.76 20.784 15.096 20.784C15.132 20.784 15.15 20.82 15.15 20.892C15.15 20.964 15.132 21 15.096 21C14.844 21 14.652 20.994 14.52 20.982L13.71 20.964L12.954 20.982C12.81 20.994 12.6 21 12.324 21C12.288 21 12.27 20.964 12.27 20.892C12.27 20.82 12.288 20.784 12.324 20.784C12.744 20.784 13.074 20.652 13.314 20.388C13.554 20.112 13.734 19.662 13.854 19.038L15.42 10.578C15.18 10.17 14.796 9.966 14.268 9.966C14.244 9.966 14.232 9.93 14.232 9.858C14.232 9.786 14.244 9.75 14.268 9.75L14.772 9.768C14.892 9.78 15.054 9.786 15.258 9.786C15.474 9.786 15.642 9.78 15.762 9.768C15.894 9.756 15.99 9.75 16.05 9.75C16.182 9.75 16.284 9.81 16.356 9.93C16.44 10.05 16.524 10.302 16.608 10.686L18.444 19.272L23.232 10.2C23.412 9.9 23.604 9.75 23.808 9.75C23.892 9.75 24 9.756 24.132 9.768C24.276 9.78 24.426 9.786 24.582 9.786L25.284 9.768C25.392 9.756 25.554 9.75 25.77 9.75ZM31.4656 14.628C31.4656 15 31.2676 15.36 30.8716 15.708C30.4876 16.044 29.9656 16.338 29.3056 16.59C28.6576 16.842 27.9556 17.028 27.1996 17.148C27.1396 17.532 27.1096 17.862 27.1096 18.138C27.1096 18.882 27.2776 19.482 27.6136 19.938C27.9496 20.382 28.4236 20.604 29.0356 20.604C29.7076 20.604 30.3076 20.406 30.8356 20.01H30.8716C30.9076 20.01 30.9376 20.028 30.9616 20.064C30.9976 20.1 30.9976 20.136 30.9616 20.172C30.1216 20.868 29.2456 21.216 28.3336 21.216C27.5776 21.216 27.0016 20.976 26.6056 20.496C26.2216 20.004 26.0296 19.374 26.0296 18.606C26.0296 18.342 26.0596 18.03 26.1196 17.67C26.2276 17.058 26.4796 16.458 26.8756 15.87C27.2716 15.27 27.7636 14.778 28.3516 14.394C28.9516 14.01 29.5756 13.818 30.2236 13.818C30.6196 13.818 30.9256 13.89 31.1416 14.034C31.3576 14.178 31.4656 14.376 31.4656 14.628ZM29.4316 14.304C28.8796 14.304 28.4116 14.55 28.0276 15.042C27.6556 15.522 27.3976 16.14 27.2536 16.896C28.0936 16.752 28.7716 16.536 29.2876 16.248C29.8156 15.96 30.1336 15.6 30.2416 15.168C30.2656 15.048 30.2776 14.964 30.2776 14.916C30.2776 14.712 30.1936 14.562 30.0256 14.466C29.8576 14.358 29.6596 14.304 29.4316 14.304ZM40.0115 19.614C40.0355 19.59 40.0535 19.578 40.0655 19.578C40.1015 19.578 40.1315 19.602 40.1555 19.65C40.1915 19.686 40.1915 19.722 40.1555 19.758C39.7475 20.238 39.3815 20.592 39.0575 20.82C38.7455 21.048 38.4395 21.162 38.1395 21.162C37.9235 21.162 37.7615 21.102 37.6535 20.982C37.5575 20.85 37.5095 20.64 37.5095 20.352C37.5095 20.112 37.5455 19.794 37.6175 19.398L38.1395 16.536C38.2115 16.152 38.2475 15.828 38.2475 15.564C38.2475 14.868 37.9895 14.52 37.4735 14.52C37.0775 14.52 36.6635 14.772 36.2315 15.276C35.8115 15.78 35.4155 16.518 35.0435 17.49C34.6715 18.45 34.3715 19.578 34.1435 20.874C34.1195 20.958 34.0535 21.024 33.9455 21.072C33.8495 21.12 33.7175 21.144 33.5495 21.144C33.3815 21.144 33.2675 21.132 33.2075 21.108C33.1595 21.096 33.1355 21.072 33.1355 21.036L33.2075 20.622C33.2795 20.334 33.3455 20.016 33.4055 19.668L34.1435 15.654C34.1795 15.474 34.1975 15.312 34.1975 15.168C34.1975 14.784 34.0775 14.592 33.8375 14.592C33.6935 14.592 33.5075 14.664 33.2795 14.808C33.0635 14.952 32.8355 15.156 32.5955 15.42C32.5835 15.432 32.5655 15.438 32.5415 15.438C32.5055 15.438 32.4695 15.42 32.4335 15.384C32.4095 15.336 32.4155 15.3 32.4515 15.276C32.8595 14.808 33.2315 14.46 33.5675 14.232C33.9155 14.004 34.2455 13.89 34.5575 13.89C34.7615 13.89 34.9115 13.956 35.0075 14.088C35.1035 14.208 35.1515 14.406 35.1515 14.682C35.1515 14.994 35.1215 15.306 35.0615 15.618L34.6835 17.796C35.1155 16.548 35.6255 15.576 36.2135 14.88C36.8015 14.172 37.4195 13.818 38.0675 13.818C38.4635 13.818 38.7575 13.926 38.9495 14.142C39.1415 14.358 39.2375 14.7 39.2375 15.168C39.2375 15.456 39.2015 15.798 39.1295 16.194L38.5355 19.398C38.4995 19.578 38.4815 19.74 38.4815 19.884C38.4815 20.256 38.6015 20.442 38.8415 20.442C39.0935 20.442 39.4835 20.166 40.0115 19.614ZM48.6487 19.632C48.6607 19.62 48.6787 19.614 48.7027 19.614C48.7387 19.614 48.7687 19.638 48.7927 19.686C48.8167 19.722 48.8167 19.752 48.7927 19.776C48.3727 20.256 47.9947 20.61 47.6587 20.838C47.3227 21.054 46.9987 21.162 46.6867 21.162C46.4827 21.162 46.3327 21.102 46.2367 20.982C46.1407 20.85 46.0927 20.646 46.0927 20.37C46.0927 20.058 46.1227 19.746 46.1827 19.434L46.5607 17.256C46.1287 18.504 45.6187 19.482 45.0307 20.19C44.4427 20.886 43.8247 21.234 43.1767 21.234C42.3847 21.234 41.9887 20.79 41.9887 19.902C41.9887 19.578 42.0307 19.23 42.1147 18.858L42.7627 15.654C42.7987 15.45 42.8167 15.288 42.8167 15.168C42.8167 14.796 42.7027 14.61 42.4747 14.61C42.2347 14.61 41.8387 14.886 41.2867 15.438C41.2627 15.462 41.2387 15.474 41.2147 15.474C41.1787 15.474 41.1487 15.456 41.1247 15.42C41.1007 15.372 41.1067 15.33 41.1427 15.294C41.5627 14.814 41.9287 14.46 42.2407 14.232C42.5647 14.004 42.8767 13.89 43.1767 13.89C43.5967 13.89 43.8067 14.166 43.8067 14.718C43.8067 14.898 43.7647 15.21 43.6807 15.654L43.1047 18.516C43.0207 18.972 42.9787 19.302 42.9787 19.506C42.9787 20.19 43.2367 20.532 43.7527 20.532C44.1487 20.532 44.5567 20.28 44.9767 19.776C45.4087 19.272 45.8107 18.54 46.1827 17.58C46.5667 16.62 46.8727 15.486 47.1007 14.178C47.1367 13.998 47.3287 13.908 47.6767 13.908C47.9647 13.908 48.1087 13.944 48.1087 14.016L48.0367 14.43C47.9647 14.718 47.8987 15.036 47.8387 15.384L47.1007 19.398C47.0647 19.578 47.0467 19.74 47.0467 19.884C47.0467 20.268 47.1667 20.46 47.4067 20.46C47.5387 20.46 47.7127 20.388 47.9287 20.244C48.1567 20.1 48.3967 19.896 48.6487 19.632Z" fill="#242424"/>
<path fill-rule="evenodd" clip-rule="evenodd" d="M73.75 10C73.75 10.1989 73.671 10.3897 73.5303 10.5303C73.3897 10.671 73.1989 10.75 73 10.75H57C56.8011 10.75 56.6103 10.671 56.4697 10.5303C56.329 10.3897 56.25 10.1989 56.25 10C56.25 9.80109 56.329 9.61032 56.4697 9.46967C56.6103 9.32902 56.8011 9.25 57 9.25H73C73.1989 9.25 73.3897 9.32902 73.5303 9.46967C73.671 9.61032 73.75 9.80109 73.75 10ZM73.75 15C73.75 15.1989 73.671 15.3897 73.5303 15.5303C73.3897 15.671 73.1989 15.75 73 15.75H57C56.8011 15.75 56.6103 15.671 56.4697 15.5303C56.329 15.3897 56.25 15.1989 56.25 15C56.25 14.8011 56.329 14.6103 56.4697 14.4697C56.6103 14.329 56.8011 14.25 57 14.25H73C73.1989 14.25 73.3897 14.329 73.5303 14.4697C73.671 14.6103 73.75 14.8011 73.75 15ZM73.75 20C73.75 20.1989 73.671 20.3897 73.5303 20.5303C73.3897 20.671 73.1989 20.75 73 20.75H57C56.8011 20.75 56.6103 20.671 56.4697 20.5303C56.329 20.3897 56.25 20.1989 56.25 20C56.25 19.8011 56.329 19.6103 56.4697 19.4697C56.6103 19.329 56.8011 19.25 57 19.25H73C73.1989 19.25 73.3897 19.329 73.5303 19.4697C73.671 19.6103 73.75 19.8011 73.75 20Z" fill="#242424"/>
</svg>
