<svg width="236" height="69" viewBox="0 0 236 69" fill="none" xmlns="http://www.w3.org/2000/svg">
<path d="M80.049 15L81.9808 3.36364H88.9581L88.7536 4.61364H83.1854L82.5263 8.54545H87.5717L87.3672 9.79545H82.3217L81.4581 15H80.049ZM92.2195 15.1818C91.4164 15.1818 90.7441 14.9905 90.2024 14.608C89.6607 14.2254 89.2782 13.6894 89.0547 13C88.835 12.3106 88.799 11.5076 88.9467 10.5909C89.0907 9.69697 89.3767 8.91856 89.8047 8.25568C90.2365 7.58901 90.7725 7.07386 91.4126 6.71023C92.0566 6.3428 92.7649 6.15909 93.5376 6.15909C94.3407 6.15909 95.0111 6.35227 95.549 6.73864C96.0907 7.12121 96.4732 7.65909 96.6967 8.35227C96.9202 9.04167 96.9581 9.84848 96.8104 10.7727C96.6664 11.6591 96.3767 12.4337 95.9411 13.0966C95.5092 13.7557 94.9732 14.2689 94.3331 14.6364C93.6967 15 92.9922 15.1818 92.2195 15.1818ZM92.2422 13.9773C92.8558 13.9773 93.388 13.8201 93.8388 13.5057C94.2933 13.1913 94.6607 12.7765 94.9411 12.2614C95.2251 11.7462 95.4164 11.1894 95.5149 10.5909C95.6058 10.0227 95.602 9.49432 95.5036 9.00568C95.4051 8.51326 95.1948 8.11742 94.8729 7.81818C94.5509 7.51515 94.0982 7.36364 93.5149 7.36364C92.9013 7.36364 92.3653 7.52273 91.907 7.84091C91.4524 8.15909 91.085 8.57765 90.8047 9.09659C90.5244 9.61553 90.3369 10.1742 90.2422 10.7727C90.1513 11.3409 90.1532 11.8693 90.2479 12.358C90.3464 12.8428 90.5566 13.2348 90.8786 13.5341C91.2043 13.8295 91.6589 13.9773 92.2422 13.9773ZM101.437 3.36364L99.505 15H98.1641L100.096 3.36364H101.437ZM105.234 3.36364L103.302 15H101.961L103.893 3.36364H105.234ZM109.36 15.1818C108.557 15.1818 107.885 14.9905 107.343 14.608C106.801 14.2254 106.419 13.6894 106.195 13C105.976 12.3106 105.94 11.5076 106.087 10.5909C106.231 9.69697 106.517 8.91856 106.945 8.25568C107.377 7.58901 107.913 7.07386 108.553 6.71023C109.197 6.3428 109.906 6.15909 110.678 6.15909C111.481 6.15909 112.152 6.35227 112.69 6.73864C113.231 7.12121 113.614 7.65909 113.837 8.35227C114.061 9.04167 114.099 9.84848 113.951 10.7727C113.807 11.6591 113.517 12.4337 113.082 13.0966C112.65 13.7557 112.114 14.2689 111.474 14.6364C110.837 15 110.133 15.1818 109.36 15.1818ZM109.383 13.9773C109.996 13.9773 110.529 13.8201 110.979 13.5057C111.434 13.1913 111.801 12.7765 112.082 12.2614C112.366 11.7462 112.557 11.1894 112.656 10.5909C112.746 10.0227 112.743 9.49432 112.644 9.00568C112.546 8.51326 112.335 8.11742 112.013 7.81818C111.692 7.51515 111.239 7.36364 110.656 7.36364C110.042 7.36364 109.506 7.52273 109.048 7.84091C108.593 8.15909 108.226 8.57765 107.945 9.09659C107.665 9.61553 107.478 10.1742 107.383 10.7727C107.292 11.3409 107.294 11.8693 107.388 12.358C107.487 12.8428 107.697 13.2348 108.019 13.5341C108.345 13.8295 108.799 13.9773 109.383 13.9773ZM116.985 15L115.781 6.27273H117.19L117.962 12.9545H118.053L121.031 6.27273H122.462L123.19 12.9318H123.281L126.281 6.27273H127.69L123.576 15H122.258L121.462 8.29545H121.326L118.303 15H116.985ZM142.258 3.36364H143.667L142.394 11.0682C142.262 11.8636 141.957 12.5739 141.479 13.1989C141.002 13.8201 140.394 14.3106 139.656 14.6705C138.917 15.0265 138.091 15.2045 137.178 15.2045C136.265 15.2045 135.5 15.0265 134.883 14.6705C134.265 14.3106 133.822 13.8201 133.553 13.1989C133.284 12.5739 133.216 11.8636 133.349 11.0682L134.621 3.36364H136.031L134.769 10.9545C134.678 11.5227 134.722 12.0284 134.9 12.4716C135.078 12.911 135.377 13.2576 135.798 13.5114C136.222 13.7614 136.758 13.8864 137.406 13.8864C138.053 13.8864 138.631 13.7614 139.138 13.5114C139.646 13.2576 140.059 12.911 140.377 12.4716C140.699 12.0284 140.906 11.5227 140.996 10.9545L142.258 3.36364ZM151.685 8.22727L150.413 8.56818C150.367 8.36364 150.288 8.16667 150.174 7.97727C150.064 7.78409 149.894 7.62689 149.663 7.50568C149.435 7.38068 149.125 7.31818 148.731 7.31818C148.197 7.31818 147.733 7.44129 147.339 7.6875C146.945 7.92992 146.719 8.23864 146.663 8.61364C146.606 8.94318 146.682 9.20644 146.89 9.40341C147.098 9.60038 147.447 9.76136 147.935 9.88636L149.185 10.2045C149.935 10.3977 150.469 10.6875 150.788 11.0739C151.11 11.4564 151.219 11.9545 151.117 12.5682C151.034 13.0682 150.816 13.5152 150.464 13.9091C150.112 14.303 149.661 14.6136 149.112 14.8409C148.562 15.0682 147.951 15.1818 147.276 15.1818C146.379 15.1818 145.67 14.9886 145.151 14.6023C144.632 14.2121 144.356 13.6477 144.322 12.9091L145.663 12.5909C145.697 13.0568 145.863 13.4091 146.163 13.6477C146.466 13.8826 146.89 14 147.435 14C148.06 14 148.581 13.8674 148.998 13.6023C149.415 13.3333 149.651 13.0114 149.708 12.6364C149.765 12.3295 149.704 12.0739 149.526 11.8693C149.352 11.6648 149.049 11.5114 148.617 11.4091L147.231 11.0682C146.458 10.875 145.916 10.5795 145.606 10.1818C145.299 9.78409 145.197 9.28409 145.299 8.68182C145.382 8.18939 145.594 7.75379 145.935 7.375C146.28 6.99621 146.712 6.69886 147.231 6.48295C147.754 6.26705 148.322 6.15909 148.935 6.15909C149.799 6.15909 150.445 6.34848 150.873 6.72727C151.301 7.10227 151.572 7.60227 151.685 8.22727ZM153.863 15.0909C153.575 15.0909 153.335 14.9924 153.141 14.7955C152.948 14.5947 152.848 14.3523 152.84 14.0682C152.836 13.7841 152.937 13.5473 153.141 13.358C153.346 13.1648 153.586 13.0682 153.863 13.0682C154.143 13.0682 154.386 13.1667 154.59 13.3636C154.795 13.5606 154.893 13.7955 154.886 14.0682C154.882 14.2576 154.833 14.4299 154.738 14.5852C154.647 14.7405 154.524 14.8636 154.369 14.9545C154.217 15.0455 154.049 15.0909 153.863 15.0909ZM154.931 8.61364C154.643 8.61364 154.403 8.51515 154.21 8.31818C154.016 8.11742 153.916 7.875 153.908 7.59091C153.905 7.30682 154.005 7.07008 154.21 6.88068C154.414 6.6875 154.655 6.59091 154.931 6.59091C155.211 6.59091 155.454 6.68939 155.658 6.88636C155.863 7.08333 155.961 7.31818 155.954 7.59091C155.95 7.7803 155.901 7.95265 155.806 8.10795C155.715 8.26326 155.592 8.38636 155.437 8.47727C155.285 8.56818 155.117 8.61364 154.931 8.61364Z" fill="#6B6B6B"/>
<path d="M0.5 49C0.5 38.2304 9.23045 29.5 20 29.5C30.7696 29.5 39.5 38.2304 39.5 49C39.5 59.7696 30.7696 68.5 20 68.5C9.23045 68.5 0.5 59.7696 0.5 49Z" fill="white"/>
<path d="M0.5 49C0.5 38.2304 9.23045 29.5 20 29.5C30.7696 29.5 39.5 38.2304 39.5 49C39.5 59.7696 30.7696 68.5 20 68.5C9.23045 68.5 0.5 59.7696 0.5 49Z" stroke="#D8D8D8"/>
<path d="M21.877 42C19.906 42 18.75 43.041 18.75 45.413V47.5H16.25V50H18.75V56H21.25V50H23.25L23.75 47.5H21.25V45.836C21.25 44.9425 21.5415 44.5 22.38 44.5H23.75V42.1025C23.513 42.0705 22.8225 42 21.877 42Z" fill="#242424"/>
<path d="M49.5 49C49.5 38.2304 58.2304 29.5 69 29.5C79.7696 29.5 88.5 38.2304 88.5 49C88.5 59.7696 79.7696 68.5 69 68.5C58.2304 68.5 49.5 59.7696 49.5 49Z" fill="white"/>
<path d="M49.5 49C49.5 38.2304 58.2304 29.5 69 29.5C79.7696 29.5 88.5 38.2304 88.5 49C88.5 59.7696 79.7696 68.5 69 68.5C58.2304 68.5 49.5 59.7696 49.5 49Z" stroke="#D8D8D8"/>
<path d="M66.7345 43.5C64.959 43.5 63.5 44.957 63.5 46.7345V51.2655C63.5 53.041 64.957 54.5 66.7345 54.5H71.2655C73.041 54.5 74.5 53.043 74.5 51.2655V46.735C74.5 44.959 73.043 43.5 71.2655 43.5H66.7345ZM66.7345 44.5H71.2655C71.559 44.4996 71.8498 44.5571 72.1211 44.6693C72.3924 44.7814 72.6388 44.946 72.8464 45.1536C73.054 45.3612 73.2186 45.6076 73.3307 45.8789C73.4429 46.1502 73.5004 46.441 73.5 46.7345V51.2655C73.5004 51.559 73.4429 51.8498 73.3307 52.1211C73.2186 52.3924 73.054 52.6388 72.8464 52.8464C72.6388 53.054 72.3924 53.2186 72.1211 53.3307C71.8498 53.4429 71.559 53.5004 71.2655 53.5H66.735C66.4414 53.5005 66.1506 53.443 65.8793 53.3309C65.6079 53.2187 65.3614 53.0542 65.1538 52.8466C64.9461 52.639 64.7815 52.3925 64.6693 52.1212C64.5571 51.8499 64.4996 51.5591 64.5 51.2655V46.735C64.4995 46.4414 64.557 46.1506 64.6691 45.8793C64.7813 45.6079 64.9458 45.3614 65.1534 45.1538C65.361 44.9461 65.6075 44.7815 65.8788 44.6693C66.1501 44.5571 66.4409 44.4996 66.7345 44.5ZM71.953 45.594C71.8934 45.5937 71.8344 45.6053 71.7793 45.6279C71.7243 45.6506 71.6742 45.684 71.6321 45.7261C71.59 45.7682 71.5566 45.8183 71.5339 45.8733C71.5113 45.9284 71.4997 45.9874 71.5 46.047C71.5 46.299 71.701 46.5 71.953 46.5C72.0126 46.5003 72.0717 46.4888 72.1268 46.4662C72.182 46.4436 72.2321 46.4102 72.2742 46.3681C72.3164 46.326 72.3498 46.2759 72.3725 46.2208C72.3952 46.1657 72.4068 46.1066 72.4065 46.047C72.4068 45.9874 72.3952 45.9283 72.3725 45.8732C72.3498 45.8181 72.3164 45.768 72.2742 45.7259C72.2321 45.6838 72.182 45.6504 72.1268 45.6278C72.0717 45.6052 72.0126 45.5937 71.953 45.594ZM69 46C67.35 46 66 47.35 66 49C66 50.65 67.35 52 69 52C70.65 52 72 50.65 72 49C72 47.35 70.65 46 69 46ZM69 47C70.1115 47 71 47.8885 71 49C71 50.1115 70.1115 51 69 51C67.8885 51 67 50.1115 67 49C67 47.8885 67.8885 47 69 47Z" fill="#939393"/>
<path d="M98.5 49C98.5 38.2304 107.23 29.5 118 29.5C128.77 29.5 137.5 38.2304 137.5 49C137.5 59.7696 128.77 68.5 118 68.5C107.23 68.5 98.5 59.7696 98.5 49Z" fill="white"/>
<path d="M98.5 49C98.5 38.2304 107.23 29.5 118 29.5C128.77 29.5 137.5 38.2304 137.5 49C137.5 59.7696 128.77 68.5 118 68.5C107.23 68.5 98.5 59.7696 98.5 49Z" stroke="#D8D8D8"/>
<path d="M114.071 43.5C113.898 43.4999 113.726 43.5339 113.566 43.6002C113.406 43.6665 113.26 43.7637 113.137 43.8862C113.015 44.0088 112.917 44.1544 112.851 44.3146C112.784 44.4748 112.75 44.6465 112.75 44.82C112.75 45.55 113.342 46.155 114.07 46.155C114.8 46.155 115.391 45.55 115.391 44.821C115.392 44.6476 115.358 44.4758 115.291 44.3156C115.225 44.1553 115.128 44.0097 115.005 43.887C114.883 43.7643 114.737 43.667 114.577 43.6006C114.417 43.5342 114.245 43.5 114.071 43.5ZM120.517 47C119.408 47 118.773 47.58 118.469 48.157H118.436V47.1555H116.25V54.5H118.528V50.8645C118.528 49.9065 118.601 48.9805 119.786 48.9805C120.955 48.9805 120.972 50.073 120.972 50.925V54.5H123.25V50.466C123.25 48.492 122.826 47 120.517 47ZM112.931 47.155V54.5H115.212V47.155H112.931Z" fill="#939393"/>
<path d="M147.5 49C147.5 38.2304 156.23 29.5 167 29.5C177.77 29.5 186.5 38.2304 186.5 49C186.5 59.7696 177.77 68.5 167 68.5C156.23 68.5 147.5 59.7696 147.5 49Z" fill="white"/>
<path d="M147.5 49C147.5 38.2304 156.23 29.5 167 29.5C177.77 29.5 186.5 38.2304 186.5 49C186.5 59.7696 177.77 68.5 167 68.5C156.23 68.5 147.5 59.7696 147.5 49Z" stroke="#D8D8D8"/>
<path d="M173 45.7797C172.551 45.9786 172.074 46.1089 171.586 46.1662C172.1 45.8585 172.484 45.3747 172.668 44.8047C172.185 45.0911 171.656 45.2933 171.106 45.4027C170.768 45.0419 170.33 44.791 169.848 44.6825C169.366 44.5741 168.862 44.6133 168.403 44.7949C167.943 44.9765 167.549 45.2921 167.271 45.7007C166.994 46.1094 166.845 46.5921 166.845 47.0862C166.845 47.2797 166.867 47.4672 166.911 47.6467C165.931 47.5985 164.973 47.3445 164.099 46.9013C163.224 46.458 162.453 45.8355 161.835 45.0742C161.615 45.45 161.5 45.8775 161.501 46.3127C161.501 47.1662 161.935 47.9202 162.597 48.3617C162.206 48.3493 161.824 48.2433 161.482 48.0527V48.0842C161.482 48.6528 161.678 49.204 162.038 49.644C162.398 50.0841 162.9 50.3859 163.457 50.4982C163.095 50.5976 162.714 50.6123 162.345 50.5412C162.502 51.0304 162.808 51.4582 163.22 51.7649C163.633 52.0717 164.13 52.2421 164.644 52.2522C164.133 52.653 163.549 52.9492 162.923 53.1238C162.298 53.2984 161.644 53.348 161 53.2697C162.125 53.9938 163.435 54.3784 164.773 54.3772C169.302 54.3772 171.78 50.6252 171.78 47.3712C171.78 47.2662 171.775 47.1582 171.771 47.0527C172.253 46.7042 172.669 46.2734 173 45.7802V45.7797Z" fill="#939393"/>
<path d="M196.5 49C196.5 38.2304 205.23 29.5 216 29.5C226.77 29.5 235.5 38.2304 235.5 49C235.5 59.7696 226.77 68.5 216 68.5C205.23 68.5 196.5 59.7696 196.5 49Z" fill="white"/>
<path d="M196.5 49C196.5 38.2304 205.23 29.5 216 29.5C226.77 29.5 235.5 38.2304 235.5 49C235.5 59.7696 226.77 68.5 216 68.5C205.23 68.5 196.5 59.7696 196.5 49Z" stroke="#D8D8D8"/>
<path d="M214.25 44.25C213.454 44.25 212.691 44.5661 212.129 45.1287C211.566 45.6913 211.25 46.4544 211.25 47.25V50.75C211.25 51.5456 211.566 52.3087 212.129 52.8713C212.691 53.4339 213.454 53.75 214.25 53.75H217.75C218.546 53.75 219.309 53.4339 219.871 52.8713C220.434 52.3087 220.75 51.5456 220.75 50.75V48.25C220.75 48.1174 220.697 47.9902 220.604 47.8964C220.51 47.8027 220.383 47.75 220.25 47.75H219.75C219.617 47.75 219.49 47.6973 219.396 47.6036C219.303 47.5098 219.25 47.3826 219.25 47.25C219.25 46.4544 218.934 45.6913 218.371 45.1287C217.809 44.5661 217.046 44.25 216.25 44.25H214.25ZM214.25 46.75H216.25C216.525 46.75 216.75 46.975 216.75 47.25C216.75 47.525 216.525 47.75 216.25 47.75H214.25C213.975 47.75 213.75 47.525 213.75 47.25C213.75 46.975 213.975 46.75 214.25 46.75ZM214.25 50.25H217.75C218.025 50.25 218.25 50.475 218.25 50.75C218.25 51.025 218.025 51.25 217.75 51.25H214.25C213.975 51.25 213.75 51.025 213.75 50.75C213.75 50.475 213.975 50.25 214.25 50.25Z" fill="#939393"/>
</svg>
